<?xml version="1.0" standalone="no"?>
<!DOCTYPE svg PUBLIC "-//W3C//DTD SVG 20010904//EN"
 "http://www.w3.org/TR/2001/REC-SVG-20010904/DTD/svg10.dtd">
<svg version="1.0" xmlns="http://www.w3.org/2000/svg"
 width="400.000000pt" height="400.000000pt" viewBox="0 0 400.000000 400.000000"
 preserveAspectRatio="xMidYMid meet">
<metadata>
Created by potrace 1.14, written by Peter Selinger 2001-2017
</metadata>
<g transform="translate(0.000000,400.000000) scale(0.100000,-0.100000)"
fill="#000000" stroke="none">
<path d="M440 3969 c-189 -12 -286 -56 -347 -158 -67 -112 -64 -21 -61 -1841
3 -1539 4 -1648 21 -1697 43 -126 125 -197 266 -230 71 -17 175 -18 1681 -18
1506 0 1610 1 1681 18 142 33 227 107 265 230 31 102 35 354 31 1862 -3 1373
-5 1495 -21 1556 -35 135 -110 218 -229 255 -29 8 -113 19 -187 24 -162 11
-2936 10 -3100 -1z m315 -679 c3 -5 13 -10 20 -10 35 0 107 -91 120 -150 4
-19 11 -41 15 -50 15 -30 28 -66 45 -125 10 -33 21 -68 26 -77 5 -10 9 -27 9
-37 0 -11 5 -23 10 -26 6 -3 10 -17 10 -30 0 -13 4 -26 9 -30 6 -3 13 -26 17
-50 3 -25 10 -48 15 -51 5 -3 9 -16 9 -30 0 -13 5 -24 10 -24 6 0 10 -11 10
-24 0 -14 4 -27 9 -30 5 -3 12 -26 15 -51 4 -24 11 -47 17 -50 5 -4 9 -15 9
-26 0 -10 5 -28 10 -39 6 -11 15 -29 20 -40 6 -11 10 -29 10 -39 0 -11 4 -22
10 -26 5 -3 7 -12 4 -19 -3 -8 -1 -17 5 -21 6 -3 11 -17 11 -30 0 -13 5 -27
10 -30 6 -3 10 -15 10 -26 0 -10 4 -27 9 -37 11 -19 23 -52 26 -67 7 -40 19
-76 26 -81 5 -3 9 -16 9 -30 0 -13 6 -24 13 -24 14 0 37 45 37 71 0 10 4 20 9
23 5 3 12 26 15 51 4 24 11 47 17 50 5 4 9 15 9 26 0 10 5 28 10 39 6 11 14
28 19 38 5 10 12 37 16 60 4 23 11 44 16 48 5 3 9 14 9 25 0 10 5 28 10 39 6
11 14 28 19 38 5 10 12 37 16 60 4 23 11 44 16 48 5 3 9 16 9 29 0 13 5 27 10
30 6 3 10 17 10 31 0 13 5 24 10 24 6 0 10 13 10 28 0 16 3 32 8 36 4 4 7 11
7 14 1 17 39 128 47 136 4 6 8 20 8 32 0 13 4 25 9 29 6 3 13 26 17 50 3 25
10 48 15 51 5 3 9 14 9 25 0 10 4 19 9 19 5 0 11 13 14 28 8 39 86 124 139
149 76 37 199 56 213 33 3 -5 15 -10 25 -10 46 0 200 -126 185 -151 -3 -4 -1
-10 5 -14 5 -3 10 -15 10 -26 0 -19 4 -28 28 -76 7 -13 12 -32 12 -42 0 -11 5
-23 11 -26 6 -4 8 -13 5 -21 -3 -7 -1 -16 4 -19 6 -4 10 -16 10 -29 0 -12 4
-26 8 -31 5 -6 15 -30 22 -55 8 -25 17 -49 21 -55 4 -5 10 -29 14 -52 4 -24
11 -45 16 -49 5 -3 9 -14 9 -25 0 -10 5 -29 12 -42 22 -43 26 -53 33 -95 4
-23 11 -44 16 -48 5 -3 9 -15 9 -28 0 -12 4 -26 8 -31 5 -6 17 -37 26 -70 9
-33 21 -68 27 -77 5 -10 9 -26 9 -36 0 -10 4 -22 8 -27 8 -10 17 -35 48 -140
27 -90 51 -96 73 -17 8 26 17 52 21 57 4 6 11 29 15 52 4 24 11 45 16 49 5 3
9 15 9 28 0 12 4 26 8 31 5 6 17 37 26 70 9 33 21 68 27 77 5 10 9 27 9 37 0
11 5 23 10 26 6 3 10 17 10 30 0 13 5 27 11 30 6 4 8 13 5 21 -3 7 -1 16 4 19
6 4 10 15 10 26 0 19 4 28 28 76 7 13 12 32 12 42 0 11 5 23 10 26 6 4 9 12 8
18 -3 15 32 129 44 142 4 5 8 19 8 31 0 13 4 25 9 29 6 3 13 26 17 50 3 25 10
48 15 51 5 3 9 14 9 25 0 10 5 28 10 39 24 48 28 57 34 87 9 41 64 103 116
131 59 31 139 28 212 -9 10 -5 24 -9 33 -9 8 0 30 -9 49 -19 19 -11 37 -17 40
-14 3 4 6 1 6 -5 0 -7 6 -12 13 -12 18 0 107 -88 107 -106 0 -8 7 -17 15 -20
20 -8 20 -87 0 -104 -8 -7 -15 -23 -15 -36 0 -12 -4 -25 -9 -28 -5 -3 -12 -26
-15 -51 -4 -24 -11 -47 -17 -50 -5 -4 -9 -15 -9 -26 0 -10 -4 -27 -9 -37 -16
-31 -29 -66 -45 -122 -9 -30 -21 -65 -26 -77 -25 -59 -29 -70 -36 -103 -6 -32
-10 -41 -34 -90 -5 -11 -10 -28 -10 -38 0 -10 -4 -22 -8 -27 -4 -6 -16 -37
-26 -70 -19 -61 -32 -97 -46 -126 -5 -9 -12 -33 -15 -53 -4 -20 -11 -39 -16
-42 -5 -3 -9 -14 -9 -25 0 -19 -4 -28 -28 -76 -7 -13 -12 -32 -12 -42 0 -11
-4 -22 -9 -25 -5 -4 -12 -24 -16 -46 -4 -22 -11 -42 -16 -46 -5 -3 -9 -15 -9
-28 0 -12 -4 -26 -8 -31 -5 -6 -17 -37 -27 -70 -11 -33 -23 -64 -27 -69 -4 -6
-8 -18 -8 -28 0 -10 -4 -27 -10 -38 -24 -49 -28 -58 -34 -90 -7 -34 -18 -65
-37 -102 -5 -10 -9 -27 -9 -37 0 -11 -4 -22 -9 -25 -5 -3 -12 -22 -16 -42 -3
-20 -11 -45 -16 -55 -5 -11 -13 -28 -19 -39 -5 -11 -10 -29 -10 -39 0 -11 -4
-22 -9 -25 -5 -3 -12 -22 -16 -42 -3 -20 -10 -44 -15 -53 -5 -9 -16 -34 -25
-56 -38 -89 -175 -174 -278 -175 -31 0 -65 4 -75 9 -9 5 -32 16 -51 24 -18 8
-59 40 -91 71 -46 45 -61 68 -74 114 -10 31 -21 65 -27 74 -5 10 -9 25 -9 33
0 8 -5 25 -12 38 -22 43 -26 53 -33 95 -4 23 -11 44 -16 48 -5 3 -9 14 -9 25
0 10 -5 29 -12 42 -24 48 -28 57 -28 76 0 11 -5 23 -11 26 -6 4 -8 13 -5 21 3
7 1 16 -4 19 -6 4 -10 15 -10 26 0 10 -4 27 -9 37 -18 36 -31 69 -46 122 -9
30 -21 63 -26 72 -5 10 -9 26 -9 36 0 10 -4 22 -8 28 -5 5 -22 50 -37 99 -16
50 -32 95 -35 100 -4 6 -13 30 -20 55 -25 84 -40 89 -59 23 -14 -45 -18 -56
-40 -101 -5 -10 -12 -33 -15 -52 -7 -34 -18 -65 -37 -102 -5 -10 -9 -25 -9
-33 0 -8 -4 -23 -9 -33 -6 -9 -18 -44 -27 -77 -9 -33 -21 -64 -26 -69 -4 -6
-8 -18 -8 -28 0 -10 -4 -26 -9 -36 -15 -28 -24 -56 -22 -69 1 -6 -3 -14 -9
-18 -5 -3 -10 -16 -10 -29 0 -12 -4 -26 -8 -32 -5 -5 -15 -29 -22 -54 -8 -25
-17 -49 -21 -55 -4 -5 -10 -26 -13 -45 -7 -34 -18 -65 -37 -102 -5 -10 -9 -27
-9 -37 0 -11 -4 -22 -9 -25 -5 -4 -12 -25 -16 -48 -8 -45 -20 -70 -47 -102
-10 -11 -18 -23 -18 -27 0 -30 -112 -119 -150 -119 -11 0 -20 -4 -20 -10 0
-13 -89 -13 -131 1 -68 22 -135 59 -166 91 -36 37 -77 116 -88 168 -4 19 -12
43 -18 55 -24 47 -27 56 -27 74 0 11 -4 22 -9 26 -6 3 -13 26 -17 50 -3 25
-10 45 -15 45 -5 0 -9 9 -9 19 0 11 -4 23 -10 26 -5 3 -10 15 -10 26 0 10 -4
27 -9 37 -5 9 -17 42 -26 72 -15 53 -28 86 -46 122 -5 10 -9 27 -9 37 0 11 -5
23 -10 26 -6 4 -8 10 -5 15 3 5 2 17 -3 27 -6 10 -15 32 -22 48 -7 17 -16 37
-20 45 -4 9 -11 31 -14 50 -7 34 -18 65 -37 102 -5 10 -9 25 -9 33 0 8 -5 25
-12 38 -23 45 -27 55 -34 93 -4 22 -10 41 -14 44 -6 5 -44 116 -45 132 0 3 -3
10 -8 14 -4 4 -7 16 -7 26 0 10 -4 26 -9 36 -18 35 -31 69 -47 122 -8 30 -19
64 -24 75 -14 36 -27 70 -38 95 -6 14 -14 41 -18 60 -6 32 -10 41 -34 90 -6
11 -10 29 -10 39 0 11 -4 22 -9 26 -6 3 -13 26 -17 50 -3 25 -10 48 -15 51 -5
3 -9 16 -9 30 0 14 -7 27 -15 30 -21 9 -21 129 0 138 8 3 15 11 15 18 0 15 91
98 108 98 6 0 12 5 12 10 0 6 3 9 8 8 8 -1 39 9 64 23 10 5 26 9 36 9 10 0 22
3 26 8 10 9 101 29 143 31 17 0 35 -3 38 -9z"/>
</g>
</svg>
