<?xml version="1.0" encoding="utf-8"?>
<!-- Generator: Adobe Illustrator 18.0.0, SVG Export Plug-In . SVG Version: 6.00 Build 0)  -->
<!DOCTYPE svg PUBLIC "-//W3C//DTD SVG 1.1//EN" "http://www.w3.org/Graphics/SVG/1.1/DTD/svg11.dtd">
<svg version="1.1" id="Layer_1" xmlns="http://www.w3.org/2000/svg" xmlns:xlink="http://www.w3.org/1999/xlink" x="0px" y="0px"
	 viewBox="0 0 58 35" enable-background="new 0 0 58 35" xml:space="preserve">
<polygon fill="#2A131B" points="11.3,4.2 2.5,23.9 20.8,23.9 25.8,12.9 25.8,4.2 "/>
<polygon fill="#2A131B" points="29.8,4.2 27.5,4.2 27.5,9.1 "/>
<g>
	<path fill="#2A131B" d="M2.1,33v-7.4h0.7v3c0.3-0.4,0.6-0.6,1-0.8s0.7-0.3,1.2-0.3c0.8,0,1.4,0.3,1.9,0.8s0.8,1.2,0.8,2
		c0,0.8-0.3,1.4-0.8,2c-0.5,0.5-1.2,0.8-2,0.8c-0.4,0-0.8-0.1-1.2-0.3C3.3,32.7,3,32.4,2.8,32v1H2.1z M4.8,32.5
		c0.4,0,0.7-0.1,1.1-0.3c0.3-0.2,0.6-0.5,0.8-0.8c0.2-0.3,0.3-0.7,0.3-1.1s-0.1-0.7-0.3-1.1c-0.2-0.3-0.5-0.6-0.8-0.8
		c-0.3-0.2-0.7-0.3-1-0.3c-0.4,0-0.7,0.1-1.1,0.3c-0.3,0.2-0.6,0.5-0.8,0.8c-0.2,0.3-0.3,0.7-0.3,1.1c0,0.6,0.2,1.1,0.6,1.6
		S4.2,32.5,4.8,32.5z"/>
	<path fill="#2A131B" d="M14.2,27.6V33h-0.7v-0.9c-0.3,0.4-0.6,0.6-1,0.8c-0.4,0.2-0.8,0.3-1.2,0.3c-0.8,0-1.4-0.3-1.9-0.8
		s-0.8-1.2-0.8-2c0-0.8,0.3-1.4,0.8-2c0.5-0.5,1.2-0.8,2-0.8c0.4,0,0.8,0.1,1.2,0.3c0.4,0.2,0.7,0.5,0.9,0.8v-1H14.2z M11.5,28.2
		c-0.4,0-0.7,0.1-1.1,0.3c-0.3,0.2-0.6,0.5-0.8,0.8s-0.3,0.7-0.3,1.1c0,0.4,0.1,0.7,0.3,1.1c0.2,0.3,0.5,0.6,0.8,0.8
		c0.3,0.2,0.7,0.3,1.1,0.3c0.4,0,0.7-0.1,1.1-0.3c0.3-0.2,0.6-0.4,0.8-0.8s0.3-0.7,0.3-1.1c0-0.6-0.2-1.1-0.6-1.6
		C12.6,28.4,12.1,28.2,11.5,28.2z"/>
	<path fill="#2A131B" d="M15.8,27.6h0.7v1c0.3-0.4,0.6-0.6,0.9-0.8c0.3-0.2,0.7-0.3,1.1-0.3c0.4,0,0.8,0.1,1.1,0.3
		c0.3,0.2,0.5,0.5,0.7,0.8c0.1,0.3,0.2,0.9,0.2,1.6V33h-0.7v-2.6c0-0.6,0-1-0.1-1.2c-0.1-0.4-0.2-0.6-0.5-0.8
		c-0.2-0.2-0.5-0.3-0.9-0.3c-0.4,0-0.8,0.1-1.1,0.4c-0.3,0.3-0.5,0.6-0.7,1c-0.1,0.3-0.1,0.8-0.1,1.5v2h-0.7V27.6z"/>
	<path fill="#2A131B" d="M27.3,25.6V33h-0.7v-0.9c-0.3,0.4-0.6,0.6-1,0.8c-0.4,0.2-0.8,0.3-1.2,0.3c-0.8,0-1.4-0.3-1.9-0.8
		s-0.8-1.2-0.8-2c0-0.8,0.3-1.4,0.8-2c0.5-0.5,1.2-0.8,2-0.8c0.4,0,0.8,0.1,1.2,0.3c0.4,0.2,0.7,0.5,0.9,0.8v-3.1H27.3z M24.5,28.2
		c-0.4,0-0.7,0.1-1.1,0.3c-0.3,0.2-0.6,0.5-0.8,0.8s-0.3,0.7-0.3,1.1c0,0.4,0.1,0.7,0.3,1.1c0.2,0.3,0.5,0.6,0.8,0.8
		c0.3,0.2,0.7,0.3,1,0.3c0.4,0,0.7-0.1,1.1-0.3c0.3-0.2,0.6-0.4,0.8-0.8c0.2-0.3,0.3-0.7,0.3-1.1c0-0.6-0.2-1.1-0.6-1.6
		C25.6,28.4,25.1,28.2,24.5,28.2z"/>
	<path fill="#2A131B" d="M34,28.8l-0.5,0.3c-0.5-0.6-1.1-0.9-1.9-0.9c-0.7,0-1.2,0.2-1.6,0.6c-0.4,0.4-0.6,0.9-0.6,1.5
		c0,0.4,0.1,0.8,0.3,1.1c0.2,0.3,0.5,0.6,0.8,0.8c0.3,0.2,0.7,0.3,1.2,0.3c0.8,0,1.4-0.3,1.9-0.9l0.5,0.4c-0.3,0.4-0.6,0.7-1,0.9
		c-0.4,0.2-0.9,0.3-1.5,0.3c-0.8,0-1.5-0.3-2.1-0.8c-0.6-0.5-0.8-1.2-0.8-2c0-0.5,0.1-1,0.4-1.4c0.3-0.4,0.6-0.8,1.1-1
		c0.5-0.2,1-0.4,1.5-0.4c0.4,0,0.7,0.1,1,0.2c0.3,0.1,0.6,0.2,0.8,0.4C33.7,28.3,33.9,28.5,34,28.8z"/>
	<path fill="#2A131B" d="M40.7,27.6V33H40v-0.9c-0.3,0.4-0.6,0.6-1,0.8c-0.4,0.2-0.8,0.3-1.2,0.3c-0.8,0-1.4-0.3-1.9-0.8
		c-0.5-0.5-0.8-1.2-0.8-2c0-0.8,0.3-1.4,0.8-2c0.5-0.5,1.2-0.8,2-0.8c0.4,0,0.8,0.1,1.2,0.3c0.4,0.2,0.7,0.5,0.9,0.8v-1H40.7z
		 M37.9,28.2c-0.4,0-0.7,0.1-1.1,0.3c-0.3,0.2-0.6,0.5-0.8,0.8s-0.3,0.7-0.3,1.1c0,0.4,0.1,0.7,0.3,1.1c0.2,0.3,0.5,0.6,0.8,0.8
		c0.3,0.2,0.7,0.3,1,0.3c0.4,0,0.7-0.1,1.1-0.3c0.3-0.2,0.6-0.4,0.8-0.8s0.3-0.7,0.3-1.1c0-0.6-0.2-1.1-0.6-1.6
		C39,28.4,38.5,28.2,37.9,28.2z"/>
	<path fill="#2A131B" d="M42.3,27.6h0.7v0.9c0.2-0.3,0.5-0.6,0.7-0.7c0.3-0.2,0.7-0.3,1.1-0.3c0.3,0,0.5,0.1,0.7,0.2
		c0.2,0.1,0.4,0.2,0.6,0.4c0.1,0.2,0.3,0.4,0.4,0.7c0.2-0.4,0.5-0.7,0.9-1c0.3-0.2,0.7-0.3,1.1-0.3c0.4,0,0.7,0.1,1,0.3
		c0.3,0.2,0.5,0.4,0.6,0.8c0.1,0.3,0.2,0.8,0.2,1.5V33h-0.7v-2.9c0-0.6,0-1-0.1-1.2c-0.1-0.2-0.2-0.4-0.4-0.5
		c-0.2-0.1-0.4-0.2-0.7-0.2c-0.3,0-0.6,0.1-0.9,0.3c-0.3,0.2-0.5,0.5-0.6,0.8c-0.1,0.3-0.2,0.9-0.2,1.6V33h-0.7v-2.7
		c0-0.6,0-1.1-0.1-1.3s-0.2-0.4-0.4-0.6s-0.4-0.2-0.7-0.2c-0.3,0-0.6,0.1-0.9,0.3c-0.3,0.2-0.5,0.5-0.6,0.8
		c-0.1,0.3-0.2,0.8-0.2,1.5V33h-0.7V27.6z"/>
	<path fill="#2A131B" d="M51.7,27.6h0.7v1c0.3-0.4,0.6-0.7,0.9-0.8c0.4-0.2,0.7-0.3,1.2-0.3c0.8,0,1.4,0.3,2,0.8
		c0.5,0.5,0.8,1.2,0.8,2c0,0.8-0.3,1.5-0.8,2s-1.2,0.8-1.9,0.8c-0.4,0-0.8-0.1-1.2-0.3c-0.4-0.2-0.7-0.4-1-0.8V35h-0.7V27.6z
		 M54.5,28.2c-0.6,0-1.1,0.2-1.5,0.6c-0.4,0.4-0.6,0.9-0.6,1.6c0,0.4,0.1,0.8,0.3,1.1s0.4,0.6,0.8,0.8c0.3,0.2,0.7,0.3,1.1,0.3
		c0.4,0,0.7-0.1,1-0.3c0.3-0.2,0.6-0.5,0.8-0.8c0.2-0.3,0.3-0.7,0.3-1.1c0-0.4-0.1-0.7-0.3-1.1s-0.4-0.6-0.8-0.8
		C55.2,28.3,54.9,28.2,54.5,28.2z"/>
</g>
<path fill="#2A131B" d="M56,12.4l-1.4,0.9c-1.2-1.6-2.8-2.4-4.8-2.4c-1.6,0-3,0.5-4.1,1.6c-1.1,1.1-1.6,2.3-1.6,3.8
	c0,1,0.2,1.9,0.7,2.8c0.5,0.9,1.2,1.5,2,2c0.9,0.5,1.8,0.7,2.9,0.7c2,0,3.6-0.8,4.8-2.4l1.4,0.9c-0.6,1-1.5,1.7-2.6,2.3
	c-1.1,0.5-2.3,0.8-3.7,0.8c-2.1,0-3.9-0.7-5.3-2c-1.4-1.4-2.1-3-2.1-4.9c0-1.3,0.3-2.5,1-3.6c0.7-1.1,1.6-2,2.7-2.6
	c1.1-0.6,2.4-0.9,3.8-0.9c0.9,0,1.7,0.1,2.6,0.4c0.8,0.3,1.5,0.6,2.1,1.1S55.6,11.8,56,12.4z"/>
<path fill="#2A131B" d="M25.8,23.1V12.9l1.7-3.8V12c0.7-0.9,1.5-1.6,2.4-2c0.9-0.4,1.9-0.7,2.9-0.7c1.9,0,3.5,0.7,4.9,2.1s2,3.1,2,5
	c0,1.9-0.7,3.6-2,5s-3,2.1-4.9,2.1c-1.1,0-2.1-0.2-3-0.7c-0.9-0.5-1.7-1.2-2.4-2.1v2.5H25.8z M32.7,21.8c1,0,1.8-0.2,2.7-0.7
	c0.8-0.5,1.5-1.1,1.9-2s0.7-1.8,0.7-2.7c0-1-0.2-1.9-0.7-2.7c-0.5-0.9-1.1-1.5-2-2c-0.8-0.5-1.7-0.7-2.6-0.7c-0.9,0-1.8,0.2-2.7,0.7
	c-0.9,0.5-1.5,1.1-2,1.9c-0.5,0.8-0.7,1.7-0.7,2.8c0,1.6,0.5,2.9,1.5,3.9C30,21.2,31.2,21.8,32.7,21.8z"/>
</svg>
