<?xml version="1.0" encoding="utf-8"?>
<!-- Generator: Adobe Illustrator 18.0.0, SVG Export Plug-In . SVG Version: 6.00 Build 0)  -->
<!DOCTYPE svg PUBLIC "-//W3C//DTD SVG 1.1//EN" "http://www.w3.org/Graphics/SVG/1.1/DTD/svg11.dtd">
<svg version="1.1" id="Layer_1" xmlns="http://www.w3.org/2000/svg" xmlns:xlink="http://www.w3.org/1999/xlink" x="0px" y="0px"
	 viewBox="0 0 58 35" enable-background="new 0 0 58 35" xml:space="preserve">
<g>
	<path fill="#2A131B" d="M20.6,31.1l0.6,0.3c-0.2,0.4-0.4,0.7-0.7,0.9c-0.2,0.2-0.5,0.4-0.8,0.5C19.3,32.9,19,33,18.6,33
		c-0.9,0-1.6-0.3-2-0.9c-0.5-0.6-0.7-1.2-0.7-1.9c0-0.7,0.2-1.3,0.6-1.8c0.5-0.7,1.2-1,2.1-1c0.9,0,1.6,0.3,2.2,1
		c0.4,0.5,0.6,1.1,0.6,1.8h-4.8c0,0.6,0.2,1.1,0.6,1.5c0.4,0.4,0.9,0.6,1.4,0.6c0.3,0,0.5,0,0.8-0.1c0.3-0.1,0.5-0.2,0.7-0.4
		C20.2,31.7,20.3,31.4,20.6,31.1z M20.6,29.6c-0.1-0.4-0.2-0.7-0.4-0.9s-0.4-0.4-0.7-0.5c-0.3-0.1-0.6-0.2-0.9-0.2
		c-0.5,0-1,0.2-1.4,0.5c-0.3,0.2-0.5,0.6-0.6,1.1H20.6z"/>
	<path fill="#2A131B" d="M22.6,27.5h0.7v0.9c0.2-0.3,0.5-0.6,0.7-0.7c0.3-0.2,0.7-0.3,1.1-0.3c0.3,0,0.5,0.1,0.7,0.2
		c0.2,0.1,0.4,0.2,0.6,0.4c0.1,0.2,0.3,0.4,0.4,0.7c0.2-0.4,0.5-0.7,0.9-1c0.3-0.2,0.7-0.3,1.1-0.3c0.4,0,0.7,0.1,1,0.3
		c0.3,0.2,0.5,0.4,0.6,0.8s0.2,0.8,0.2,1.5v2.9h-0.7v-2.9c0-0.6,0-1-0.1-1.2c-0.1-0.2-0.2-0.4-0.4-0.5c-0.2-0.1-0.4-0.2-0.7-0.2
		c-0.3,0-0.6,0.1-0.9,0.3c-0.3,0.2-0.5,0.5-0.6,0.8s-0.2,0.9-0.2,1.6v2.1h-0.7v-2.7c0-0.6,0-1.1-0.1-1.3s-0.2-0.4-0.4-0.6
		S25.3,28,25,28c-0.3,0-0.6,0.1-0.9,0.3c-0.3,0.2-0.5,0.5-0.6,0.8s-0.2,0.8-0.2,1.5v2.3h-0.7V27.5z"/>
	<path fill="#2A131B" d="M37.4,27.5v5.4h-0.7v-0.9c-0.3,0.4-0.6,0.6-1,0.8C35.4,32.9,35,33,34.6,33c-0.8,0-1.4-0.3-1.9-0.8
		c-0.5-0.5-0.8-1.2-0.8-2c0-0.8,0.3-1.4,0.8-2c0.5-0.5,1.2-0.8,2-0.8c0.4,0,0.8,0.1,1.2,0.3c0.4,0.2,0.7,0.5,0.9,0.8v-1H37.4z
		 M34.6,28c-0.4,0-0.7,0.1-1.1,0.3c-0.3,0.2-0.6,0.5-0.8,0.8c-0.2,0.3-0.3,0.7-0.3,1.1c0,0.4,0.1,0.7,0.3,1.1
		c0.2,0.3,0.5,0.6,0.8,0.8c0.3,0.2,0.7,0.3,1.1,0.3c0.4,0,0.7-0.1,1.1-0.3c0.3-0.2,0.6-0.4,0.8-0.8c0.2-0.3,0.3-0.7,0.3-1.1
		c0-0.6-0.2-1.1-0.6-1.6C35.7,28.2,35.2,28,34.6,28z"/>
	<path fill="#2A131B" d="M39.2,25.3c0.2,0,0.3,0.1,0.4,0.2s0.2,0.2,0.2,0.4c0,0.2-0.1,0.3-0.2,0.4s-0.2,0.2-0.4,0.2
		c-0.2,0-0.3-0.1-0.4-0.2c-0.1-0.1-0.2-0.2-0.2-0.4c0-0.2,0.1-0.3,0.2-0.4C38.9,25.4,39,25.3,39.2,25.3z M38.8,27.5h0.7v5.4h-0.7
		V27.5z"/>
	<path fill="#2A131B" d="M40.9,25.4h0.7v7.4h-0.7V25.4z"/>
</g>
<path fill="#2A131B" d="M39.6,4.5H18.7c-1.7,0-3,1.4-3,3v13.8c0,1.6,1.3,3,3,3h20.9c1.6,0,3-1.4,3-3V7.5C42.6,5.9,41.3,4.5,39.6,4.5
	z M39.6,6.5l-10.4,10l-10.4-10H39.6z M17.7,21.6V7.3l7.6,7.2L17.7,21.6z M33.1,22.4h-7.6h-6.5l7.1-6.8l3.3,3.1l3.3-3.1l7.1,6.8H33.1
	z M40.6,21.6l-7.6-7.2l7.6-7.2V21.6z"/>
</svg>
