<?xml version="1.0" encoding="utf-8"?>
<!-- Generator: Adobe Illustrator 18.0.0, SVG Export Plug-In . SVG Version: 6.00 Build 0)  -->
<!DOCTYPE svg PUBLIC "-//W3C//DTD SVG 1.1//EN" "http://www.w3.org/Graphics/SVG/1.1/DTD/svg11.dtd">
<svg version="1.1" id="Layer_1" xmlns="http://www.w3.org/2000/svg" xmlns:xlink="http://www.w3.org/1999/xlink" x="0px" y="0px"
	 viewBox="0 0 58 35" enable-background="new 0 0 58 35" xml:space="preserve">
<g>
	<path fill="#2A131B" d="M6.6,25.3c0.2,0,0.3,0.1,0.4,0.2c0.1,0.1,0.2,0.2,0.2,0.4c0,0.2-0.1,0.3-0.2,0.4c-0.1,0.1-0.2,0.2-0.4,0.2
		c-0.2,0-0.3-0.1-0.4-0.2C6.1,26.2,6,26.1,6,25.9c0-0.2,0.1-0.3,0.2-0.4C6.3,25.4,6.4,25.3,6.6,25.3z M6.2,27.5h0.7v5.4H6.2V27.5z"
		/>
	<path fill="#2A131B" d="M8.4,27.5h0.7v1c0.3-0.4,0.6-0.6,0.9-0.8c0.3-0.2,0.7-0.3,1.1-0.3c0.4,0,0.8,0.1,1.1,0.3
		c0.3,0.2,0.5,0.5,0.7,0.8c0.1,0.3,0.2,0.9,0.2,1.6v2.8h-0.7v-2.6c0-0.6,0-1-0.1-1.2c-0.1-0.4-0.2-0.6-0.5-0.8
		c-0.2-0.2-0.5-0.3-0.9-0.3c-0.4,0-0.8,0.1-1.1,0.4c-0.3,0.3-0.5,0.6-0.7,1c-0.1,0.3-0.1,0.8-0.1,1.5v2H8.4V27.5z"/>
	<path fill="#2A131B" d="M17.2,28.1l-0.4,0.5c-0.4-0.4-0.7-0.5-1.1-0.5c-0.2,0-0.4,0.1-0.6,0.2c-0.2,0.1-0.2,0.3-0.2,0.5
		c0,0.2,0.1,0.3,0.2,0.5c0.1,0.2,0.4,0.3,0.8,0.6c0.5,0.3,0.9,0.5,1,0.8c0.2,0.2,0.3,0.5,0.3,0.8c0,0.4-0.2,0.8-0.5,1.1
		c-0.3,0.3-0.7,0.5-1.2,0.5c-0.3,0-0.6-0.1-0.9-0.2c-0.3-0.1-0.5-0.3-0.7-0.6l0.4-0.5c0.4,0.4,0.7,0.6,1.1,0.6
		c0.3,0,0.5-0.1,0.7-0.3c0.2-0.2,0.3-0.4,0.3-0.6c0-0.2-0.1-0.4-0.2-0.5c-0.1-0.2-0.4-0.3-0.9-0.6c-0.5-0.3-0.8-0.5-1-0.7
		c-0.2-0.2-0.3-0.5-0.3-0.8c0-0.4,0.1-0.7,0.4-1c0.3-0.3,0.6-0.4,1.1-0.4C16.2,27.4,16.7,27.6,17.2,28.1z"/>
	<path fill="#2A131B" d="M19,25.6h0.7v2h1.1v0.6h-1.1v4.8H19v-4.8h-0.9v-0.6H19V25.6z"/>
	<path fill="#2A131B" d="M27.2,27.5v5.4h-0.7V32c-0.3,0.4-0.6,0.6-1,0.8C25.2,33,24.8,33,24.4,33c-0.8,0-1.4-0.3-1.9-0.8
		s-0.8-1.2-0.8-2c0-0.8,0.3-1.4,0.8-2c0.5-0.5,1.2-0.8,2-0.8c0.4,0,0.8,0.1,1.2,0.3c0.4,0.2,0.7,0.5,0.9,0.8v-1H27.2z M24.4,28.1
		c-0.4,0-0.7,0.1-1.1,0.3c-0.3,0.2-0.6,0.5-0.8,0.8s-0.3,0.7-0.3,1.1c0,0.4,0.1,0.7,0.3,1.1c0.2,0.3,0.5,0.6,0.8,0.8
		c0.3,0.2,0.7,0.3,1.1,0.3c0.4,0,0.7-0.1,1.1-0.3c0.3-0.2,0.6-0.4,0.8-0.8s0.3-0.7,0.3-1.1c0-0.6-0.2-1.1-0.6-1.6
		C25.5,28.3,25,28.1,24.4,28.1z"/>
	<path fill="#2A131B" d="M33.4,27.5H34v4.3c0,0.8-0.1,1.3-0.2,1.6c-0.2,0.5-0.5,0.9-0.9,1.1c-0.4,0.3-1,0.4-1.6,0.4
		c-0.5,0-0.9-0.1-1.2-0.2c-0.4-0.1-0.7-0.3-0.9-0.5c-0.2-0.2-0.4-0.5-0.6-1h0.7c0.2,0.4,0.5,0.6,0.8,0.8s0.7,0.3,1.2,0.3
		c0.5,0,0.9-0.1,1.2-0.3c0.3-0.2,0.6-0.4,0.7-0.7c0.1-0.3,0.2-0.7,0.2-1.3v-0.3c-0.3,0.3-0.6,0.6-1,0.8s-0.8,0.3-1.2,0.3
		c-0.5,0-1-0.1-1.4-0.4c-0.4-0.2-0.8-0.6-1-1c-0.2-0.4-0.4-0.9-0.4-1.4c0-0.5,0.1-1,0.4-1.4c0.2-0.4,0.6-0.8,1-1
		c0.4-0.2,0.9-0.4,1.4-0.4c0.4,0,0.8,0.1,1.1,0.2s0.7,0.4,1,0.8V27.5z M31.3,28.1c-0.4,0-0.8,0.1-1.1,0.3c-0.3,0.2-0.6,0.4-0.8,0.8
		c-0.2,0.3-0.3,0.7-0.3,1.1c0,0.6,0.2,1.1,0.6,1.5c0.4,0.4,0.9,0.6,1.5,0.6c0.6,0,1.1-0.2,1.5-0.6s0.6-0.9,0.6-1.5
		c0-0.4-0.1-0.8-0.3-1.1c-0.2-0.3-0.4-0.6-0.8-0.8S31.7,28.1,31.3,28.1z"/>
	<path fill="#2A131B" d="M35.3,27.5H36v0.8c0.2-0.3,0.4-0.5,0.7-0.7c0.2-0.2,0.5-0.2,0.7-0.2c0.2,0,0.4,0.1,0.6,0.2l-0.4,0.6
		c-0.1-0.1-0.3-0.1-0.4-0.1c-0.2,0-0.5,0.1-0.7,0.3c-0.2,0.2-0.4,0.5-0.5,0.9C36,29.5,36,30.2,36,31.1v1.8h-0.7V27.5z"/>
	<path fill="#2A131B" d="M43.9,27.5v5.4h-0.7V32c-0.3,0.4-0.6,0.6-1,0.8C41.9,33,41.5,33,41.1,33c-0.8,0-1.4-0.3-1.9-0.8
		c-0.5-0.5-0.8-1.2-0.8-2c0-0.8,0.3-1.4,0.8-2c0.5-0.5,1.2-0.8,2-0.8c0.4,0,0.8,0.1,1.2,0.3c0.4,0.2,0.7,0.5,0.9,0.8v-1H43.9z
		 M41.1,28.1c-0.4,0-0.7,0.1-1.1,0.3c-0.3,0.2-0.6,0.5-0.8,0.8S39,29.9,39,30.2c0,0.4,0.1,0.7,0.3,1.1c0.2,0.3,0.5,0.6,0.8,0.8
		c0.3,0.2,0.7,0.3,1,0.3c0.4,0,0.7-0.1,1.1-0.3c0.3-0.2,0.6-0.4,0.8-0.8s0.3-0.7,0.3-1.1c0-0.6-0.2-1.1-0.6-1.6
		C42.2,28.3,41.7,28.1,41.1,28.1z"/>
	<path fill="#2A131B" d="M45.4,27.5h0.7v0.9c0.2-0.3,0.5-0.6,0.7-0.7c0.3-0.2,0.7-0.3,1.1-0.3c0.3,0,0.5,0.1,0.7,0.2
		c0.2,0.1,0.4,0.2,0.6,0.4c0.1,0.2,0.3,0.4,0.4,0.7c0.2-0.4,0.5-0.7,0.9-1c0.3-0.2,0.7-0.3,1.1-0.3c0.4,0,0.7,0.1,1,0.3
		c0.3,0.2,0.5,0.4,0.6,0.8c0.1,0.3,0.2,0.8,0.2,1.5v2.9h-0.7V30c0-0.6,0-1-0.1-1.2c-0.1-0.2-0.2-0.4-0.4-0.5
		c-0.2-0.1-0.4-0.2-0.7-0.2c-0.3,0-0.6,0.1-0.9,0.3c-0.3,0.2-0.5,0.5-0.6,0.8c-0.1,0.3-0.2,0.9-0.2,1.6v2.1h-0.7v-2.7
		c0-0.6,0-1.1-0.1-1.3s-0.2-0.4-0.4-0.6s-0.4-0.2-0.7-0.2c-0.3,0-0.6,0.1-0.9,0.3c-0.3,0.2-0.5,0.5-0.6,0.8
		c-0.1,0.3-0.2,0.8-0.2,1.5v2.3h-0.7V27.5z"/>
</g>
<path fill="#2A131B" d="M42.5,5.9c0-1.7-1.3-3-3-3H22.7v3h-1v-3h-1v3h-1v-3h-1.1c-1.7,0-3,1.3-3,3v3h7.9c1.4-1.5,3.3-2.5,5.5-2.5
	s4.2,1,5.5,2.5h7.9V5.9z M39.6,7.9h-3v-2h3V7.9z"/>
<path fill="#2A131B" d="M35.9,10.9c0.4,0.9,0.6,1.8,0.6,2.8c0,4.1-3.3,7.4-7.4,7.4s-7.4-3.3-7.4-7.4c0-1,0.2-2,0.6-2.8h-6.7v10.9
	c0,1.7,1.3,3,3,3h20.9c1.7,0,3-1.3,3-3V10.9H35.9z"/>
<path fill="#2A131B" d="M29.1,9.1c-2.6,0-4.7,2.1-4.7,4.7s2.1,4.7,4.7,4.7s4.7-2.1,4.7-4.7S31.7,9.1,29.1,9.1z M29.1,16.1
	c-1.3,0-2.3-1-2.3-2.3c0-1.3,1-2.3,2.3-2.3s2.3,1,2.3,2.3C31.4,15,30.4,16.1,29.1,16.1z"/>
</svg>
