<?xml version="1.0" encoding="utf-8"?>
<!-- Generator: Adobe Illustrator 18.0.0, SVG Export Plug-In . SVG Version: 6.00 Build 0)  -->
<!DOCTYPE svg PUBLIC "-//W3C//DTD SVG 1.1//EN" "http://www.w3.org/Graphics/SVG/1.1/DTD/svg11.dtd">
<svg version="1.1" id="Layer_1" xmlns="http://www.w3.org/2000/svg" xmlns:xlink="http://www.w3.org/1999/xlink" x="0px" y="0px"
	 viewBox="0 0 58 35" enable-background="new 0 0 58 35" xml:space="preserve">
<text transform="matrix(1 0 0 1 0.4095 32.9024)" fill="#2A131B" font-family="'CenturyGothic'" font-size="10.0839">soundcloud</text>
<path fill="#2A131B" d="M1.7,19.4c0,2.8,1.9,5.2,4.5,5.8V13.6C3.6,14.3,1.7,16.6,1.7,19.4z"/>
<rect x="8.1" y="13.4" fill="#2A131B" width="1.9" height="12"/>
<path fill="#2A131B" d="M11.9,11v14.5h1.9V8.6C13,9.3,12.4,10.1,11.9,11z"/>
<path fill="#2A131B" d="M15.6,7.3v18.1h1.9V6.5C16.9,6.7,16.2,7,15.6,7.3z"/>
<path fill="#2A131B" d="M20.2,6.1c-0.3,0-0.5,0-0.8,0.1v19.2h1.9V6.1H20.2z"/>
<path fill="#2A131B" d="M25,6.1h-1.8v19.3H25L25,6.1C25,6.1,25,6.1,25,6.1z"/>
<path fill="#2A131B" d="M26.9,3.7v21.7h1.9V2.2C28.1,2.7,27.5,3.2,26.9,3.7z"/>
<path fill="#2A131B" d="M49.3,11.3h-1.6C47.1,5.1,41.8,0.3,35.5,0.3c-1.7,0-3.3,0.3-4.8,1v24.2h18.6c3.9,0,7.1-3.2,7.1-7.1
	S53.2,11.3,49.3,11.3z"/>
</svg>
