<?xml version="1.0" encoding="utf-8"?>
<!-- Generator: Adobe Illustrator 18.0.0, SVG Export Plug-In . SVG Version: 6.00 Build 0)  -->
<!DOCTYPE svg PUBLIC "-//W3C//DTD SVG 1.1//EN" "http://www.w3.org/Graphics/SVG/1.1/DTD/svg11.dtd">
<svg version="1.1" id="Layer_1" xmlns="http://www.w3.org/2000/svg" xmlns:xlink="http://www.w3.org/1999/xlink" x="0px" y="0px"
	 viewBox="0 0 801 230" enable-background="new 0 0 801 230" xml:space="preserve">
<path fill="#232816" d="M782.7,88c-0.9-9.3-0.7-41.3-50.7-45.3c-80.4-6.4-140,54.6-172.7,82.7c-28.7,24.7-70,43.3-84.7,53.3
	c-3.2,2.2-20.5,2.9-45.8,2.9c-0.5,1.6-1.2,3.1-2,4.7c112.1,2.5,207.1,4.4,207.1,4.4C753.4,196.7,786,124,782.7,88z"/>
<path fill="#232816" d="M190.1,172.9c-32.1-1.5-54-2.5-55.4-2.2C129.4,172,91.7,139,75,129c-16.7-10-53.8-10.1-56.3,12.3
	c-2.2,19.4,26,30.7,52.7,34.7c7.1,1.1,54.7,2.7,119.5,4.5c-0.5-1.9-0.8-3.9-0.8-5.9C190,174,190.1,173.4,190.1,172.9z"/>
<radialGradient id="SVGID_1_" cx="403.0294" cy="116.1062" r="290.0855" gradientUnits="userSpaceOnUse">
	<stop  offset="0.7586" style="stop-color:#849864"/>
	<stop  offset="1" style="stop-color:#5A6443"/>
</radialGradient>
<path fill="url(#SVGID_1_)" stroke="#232816" stroke-width="2" stroke-miterlimit="10" d="M17.1,108.7c11.6-18.6,40.9-8.7,50.2-4
	c9.3,4.7,114.7,86,226.7,86.3c112,0.3,222.7-68,329.3-148.8S787.5,40.6,792.7,58c7.8,26,15.8,66.1-37.3,96c0,0,23.8-24.4,27.2-54.9
	c3.4-30.5-20.8-61.5-76-56.3C651.4,48,508,178.7,447.4,198s-156.7,51.3-268,0S73.2,120,37.3,127.7s-5.7,35-11.8,29.5
	S-5.7,145.3,17.1,108.7z"/>
</svg>
