<?xml version="1.0" encoding="utf-8"?>
<!-- Generator: Adobe Illustrator 18.0.0, SVG Export Plug-In . SVG Version: 6.00 Build 0)  -->
<!DOCTYPE svg PUBLIC "-//W3C//DTD SVG 1.1//EN" "http://www.w3.org/Graphics/SVG/1.1/DTD/svg11.dtd">
<svg version="1.1" id="Layer_1" xmlns="http://www.w3.org/2000/svg" xmlns:xlink="http://www.w3.org/1999/xlink" x="0px" y="0px"
	 viewBox="0 0 58 35" enable-background="new 0 0 58 35" xml:space="preserve">
<g>
	<path fill="#2A131B" d="M13.9,25.6h0.7v2h1.1v0.6h-1.1v4.8h-0.7v-4.8H13v-0.6h0.9V25.6z"/>
	<path fill="#2A131B" d="M16,27.5h0.7l1.6,3.9l1.7-3.9h0.1l1.7,3.9l1.7-3.9h0.7L22,32.9h-0.1l-1.7-3.8l-1.7,3.8h-0.1L16,27.5z"/>
	<path fill="#2A131B" d="M25.4,25.3c0.2,0,0.3,0.1,0.4,0.2c0.1,0.1,0.2,0.2,0.2,0.4c0,0.2-0.1,0.3-0.2,0.4c-0.1,0.1-0.2,0.2-0.4,0.2
		c-0.2,0-0.3-0.1-0.4-0.2c-0.1-0.1-0.2-0.2-0.2-0.4c0-0.2,0.1-0.3,0.2-0.4C25.1,25.4,25.2,25.3,25.4,25.3z M25,27.5h0.7v5.4H25V27.5
		z"/>
	<path fill="#2A131B" d="M27.8,25.6h0.7v2h1.1v0.6h-1.1v4.8h-0.7v-4.8h-0.9v-0.6h0.9V25.6z"/>
	<path fill="#2A131B" d="M31.2,25.6h0.7v2H33v0.6h-1.1v4.8h-0.7v-4.8h-0.9v-0.6h0.9V25.6z"/>
	<path fill="#2A131B" d="M38.5,31.1l0.6,0.3c-0.2,0.4-0.4,0.7-0.7,0.9c-0.2,0.2-0.5,0.4-0.8,0.5C37.3,33,36.9,33,36.5,33
		c-0.9,0-1.6-0.3-2-0.9c-0.5-0.6-0.7-1.2-0.7-1.9c0-0.7,0.2-1.3,0.6-1.8c0.5-0.7,1.2-1,2.1-1c0.9,0,1.6,0.3,2.2,1
		c0.4,0.5,0.6,1.1,0.6,1.8h-4.8c0,0.6,0.2,1.1,0.6,1.5c0.4,0.4,0.9,0.6,1.4,0.6c0.3,0,0.5,0,0.8-0.1c0.3-0.1,0.5-0.2,0.7-0.4
		C38.1,31.7,38.3,31.5,38.5,31.1z M38.5,29.7c-0.1-0.4-0.2-0.7-0.4-0.9s-0.4-0.4-0.7-0.5c-0.3-0.1-0.6-0.2-0.9-0.2
		c-0.5,0-1,0.2-1.4,0.5c-0.3,0.2-0.5,0.6-0.6,1.1H38.5z"/>
	<path fill="#2A131B" d="M40.3,27.5H41v0.8c0.2-0.3,0.4-0.5,0.7-0.7c0.2-0.2,0.5-0.2,0.7-0.2c0.2,0,0.4,0.1,0.6,0.2l-0.4,0.6
		c-0.1-0.1-0.3-0.1-0.4-0.1c-0.2,0-0.5,0.1-0.7,0.3c-0.2,0.2-0.4,0.5-0.5,0.9C41,29.5,41,30.2,41,31.1v1.8h-0.7V27.5z"/>
</g>
<path fill="#2A131B" d="M41.4,5.6l2.5-1.2l-2.7,0.1c0-0.1-0.1-0.2-0.1-0.3l2.1-2.8l-2.9,1.2C39.1,1.1,37.1,0,34.9,0
	c-3.6,0-6.5,2.9-6.5,6.4c0,0.8,0.2,1.6,0.4,2.3C28,8.5,27.1,8.3,26.4,8c-4.2-0.2-7.9-2.7-9.8-6.3c-0.1,0.7-0.2,1.5-0.2,2.2
	c0,2.7,0.9,5.1,2.4,7.1c-1.1-0.4-2-1-2.9-1.8c0.1,0.5,0.2,1.1,0.3,1.6c0.7,2.2,2.3,4,4.2,5c-0.9,0-1.8-0.1-2.7-0.4
	c0.2,0.4,0.5,0.8,0.8,1.1c1.6,1.7,3.8,2.5,5.9,2.3c-2.6,1.6-5.7,2.6-8.9,2.6c-0.2,0-0.4,0-0.7,0c2.7,1.8,6,2.9,9.5,2.9
	c9.1,0,16.5-7.2,16.8-16.2c0.1-0.5,0.2-1.1,0.2-1.6C41.5,6.1,41.4,5.9,41.4,5.6z"/>
</svg>
