<?xml version="1.0" encoding="utf-8"?>
<!-- Generator: Adobe Illustrator 18.0.0, SVG Export Plug-In . SVG Version: 6.00 Build 0)  -->
<!DOCTYPE svg PUBLIC "-//W3C//DTD SVG 1.1//EN" "http://www.w3.org/Graphics/SVG/1.1/DTD/svg11.dtd">
<svg version="1.1" id="Layer_1" xmlns="http://www.w3.org/2000/svg" xmlns:xlink="http://www.w3.org/1999/xlink" x="0px" y="0px"
	 viewBox="0 0 58 35" enable-background="new 0 0 58 35" xml:space="preserve">
<g>
	<path fill="#2A131B" d="M9.1,27.6h0.7l1.8,4.1l1.8-4.1h0.7L11,35h-0.7l1-2.4L9.1,27.6z"/>
	<path fill="#2A131B" d="M17.6,27.5c0.8,0,1.5,0.3,2.1,0.9c0.5,0.5,0.7,1.2,0.7,1.9c0,0.7-0.3,1.4-0.8,2c-0.5,0.6-1.2,0.8-2,0.8
		c-0.8,0-1.5-0.3-2-0.8c-0.5-0.6-0.8-1.2-0.8-2c0-0.7,0.2-1.4,0.7-1.9C16.1,27.8,16.8,27.5,17.6,27.5z M17.6,28.2
		c-0.6,0-1.1,0.2-1.5,0.6c-0.4,0.4-0.6,0.9-0.6,1.5c0,0.4,0.1,0.7,0.3,1.1c0.2,0.3,0.4,0.6,0.8,0.8c0.3,0.2,0.7,0.3,1.1,0.3
		c0.4,0,0.7-0.1,1.1-0.3c0.3-0.2,0.6-0.4,0.8-0.8c0.2-0.3,0.3-0.7,0.3-1.1c0-0.6-0.2-1.1-0.6-1.5C18.7,28.4,18.2,28.2,17.6,28.2z"/>
	<path fill="#2A131B" d="M21.6,27.6h0.7v2.5c0,0.6,0,1,0.1,1.3c0.1,0.3,0.3,0.6,0.6,0.8c0.3,0.2,0.6,0.3,1,0.3c0.4,0,0.7-0.1,1-0.3
		s0.5-0.4,0.6-0.7c0.1-0.2,0.1-0.6,0.1-1.3v-2.5h0.7v2.6c0,0.7-0.1,1.3-0.3,1.7s-0.4,0.7-0.8,0.9c-0.3,0.2-0.8,0.3-1.3,0.3
		c-0.5,0-1-0.1-1.3-0.3s-0.6-0.5-0.8-0.9c-0.2-0.4-0.3-0.9-0.3-1.7V27.6z"/>
	<path fill="#2A131B" d="M28.4,25.7h0.7v2h1.1v0.6h-1.1V33h-0.7v-4.8h-0.9v-0.6h0.9V25.7z"/>
	<path fill="#2A131B" d="M31.1,27.6h0.7v2.5c0,0.6,0,1,0.1,1.3c0.1,0.3,0.3,0.6,0.6,0.8c0.3,0.2,0.6,0.3,1,0.3c0.4,0,0.7-0.1,1-0.3
		s0.5-0.4,0.6-0.7c0.1-0.2,0.1-0.6,0.1-1.3v-2.5h0.7v2.6c0,0.7-0.1,1.3-0.3,1.7s-0.4,0.7-0.8,0.9c-0.3,0.2-0.8,0.3-1.3,0.3
		c-0.5,0-1-0.1-1.3-0.3s-0.6-0.5-0.8-0.9c-0.2-0.4-0.3-0.9-0.3-1.7V27.6z"/>
	<path fill="#2A131B" d="M37.4,33v-7.4h0.7v3c0.3-0.4,0.6-0.6,1-0.8s0.7-0.3,1.2-0.3c0.8,0,1.4,0.3,1.9,0.8s0.8,1.2,0.8,2
		c0,0.8-0.3,1.4-0.8,2c-0.5,0.5-1.2,0.8-2,0.8c-0.4,0-0.8-0.1-1.2-0.3c-0.4-0.2-0.7-0.5-0.9-0.8v1H37.4z M40.2,32.5
		c0.4,0,0.7-0.1,1.1-0.3c0.3-0.2,0.6-0.5,0.8-0.8c0.2-0.3,0.3-0.7,0.3-1.1s-0.1-0.7-0.3-1.1s-0.5-0.6-0.8-0.8
		c-0.3-0.2-0.7-0.3-1-0.3c-0.4,0-0.7,0.1-1.1,0.3c-0.3,0.2-0.6,0.5-0.8,0.8c-0.2,0.3-0.3,0.7-0.3,1.1c0,0.6,0.2,1.1,0.6,1.6
		C39.1,32.3,39.6,32.5,40.2,32.5z"/>
	<path fill="#2A131B" d="M48.8,31.2l0.6,0.3c-0.2,0.4-0.4,0.7-0.7,0.9c-0.3,0.2-0.5,0.4-0.8,0.5c-0.3,0.1-0.7,0.2-1.1,0.2
		c-0.9,0-1.6-0.3-2.1-0.9c-0.5-0.6-0.7-1.2-0.7-1.9c0-0.7,0.2-1.3,0.6-1.8c0.5-0.7,1.2-1,2.1-1c0.9,0,1.6,0.3,2.2,1
		c0.4,0.5,0.6,1.1,0.6,1.8h-4.8c0,0.6,0.2,1.1,0.6,1.5c0.4,0.4,0.9,0.6,1.4,0.6c0.3,0,0.5,0,0.8-0.1s0.5-0.2,0.7-0.4
		C48.4,31.8,48.5,31.6,48.8,31.2z M48.8,29.8c-0.1-0.4-0.2-0.7-0.4-0.9c-0.2-0.2-0.4-0.4-0.7-0.5c-0.3-0.1-0.6-0.2-0.9-0.2
		c-0.5,0-1,0.2-1.4,0.5c-0.3,0.2-0.5,0.6-0.6,1.1H48.8z"/>
</g>
<path fill="#2A131B" d="M39.7,2.4h-21c-1.7,0-3,1.4-3,3v16.2c0,1.7,1.3,3,3,3h21c1.7,0,3-1.3,3-3V5.4C42.7,3.7,41.3,2.4,39.7,2.4z
	 M25.7,18.3V9.7l8.5,4.3L25.7,18.3z"/>
</svg>
